<svg width="17" height="21" viewBox="0 0 17 21" fill="none" xmlns="http://www.w3.org/2000/svg">
<g opacity="0.8">
<mask id="mask0_200_13276" style="mask-type:luminance" maskUnits="userSpaceOnUse" x="0" y="0" width="10" height="19">
<path d="M7.67759 0.190989L2.48819 5.40787C2.38593 5.5105 2.28368 5.62168 2.18142 5.73286C2.03656 5.89535 1.8917 6.0664 1.76389 6.23744C1.67867 6.34862 1.59346 6.46835 1.50825 6.58809C1.05663 7.23806 0.707259 7.93934 0.460144 8.67484C0.366411 8.93996 0.28972 9.20508 0.230072 9.47875C0.178945 9.68401 0.144861 9.88926 0.110776 10.0945C0.076691 10.2998 0.0511273 10.505 0.0340849 10.7103C0.0255637 10.8471 0.0170423 10.984 0.00852106 11.1293C-1.3015e-07 11.2662 0 11.403 0 11.5484C0 11.5912 0 11.6254 0 11.6681C0 11.6938 0 11.7194 0 11.7537C0 11.7879 -1.3015e-07 11.8221 0.00852106 11.8648C0.00852106 11.899 0.00852093 11.9333 0.0170421 11.9589C0.0170421 11.9931 0.0255638 12.0273 0.0255638 12.0615C0.0255638 12.0957 0.0340849 12.13 0.0340849 12.1642C0.0340849 12.1984 0.042606 12.2326 0.042606 12.2668C0.042606 12.301 0.051127 12.3352 0.051127 12.3694C0.051127 12.4036 0.0596481 12.4378 0.0596481 12.472C0.0596481 12.5063 0.0681698 12.5405 0.0681698 12.5747C0.0681698 12.6089 0.0766907 12.6431 0.0852119 12.6773C0.0937331 12.7115 0.0937328 12.7457 0.102254 12.7799C0.110775 12.8141 0.110776 12.8483 0.119297 12.874C0.127818 12.9082 0.127818 12.9424 0.136339 12.9766C0.14486 13.0108 0.144861 13.045 0.153382 13.0707C0.161903 13.1049 0.170424 13.1391 0.170424 13.1733C0.178945 13.2075 0.187466 13.2417 0.187466 13.2674C0.195987 13.3016 0.204509 13.3358 0.21303 13.37C0.221551 13.4042 0.230072 13.4385 0.238594 13.4641C0.247115 13.4983 0.255636 13.5325 0.264157 13.5667C0.272678 13.6009 0.281199 13.6266 0.289721 13.6608C0.298242 13.695 0.306763 13.7292 0.315284 13.7634C0.323805 13.7976 0.332326 13.8233 0.340848 13.8575C0.349369 13.8917 0.35789 13.9259 0.374933 13.9601C0.383454 13.9944 0.391975 14.02 0.409017 14.0542C0.417539 14.0884 0.43458 14.1226 0.443102 14.1568C0.451623 14.1911 0.468665 14.2167 0.477187 14.2509C0.485708 14.2851 0.50275 14.3193 0.511271 14.3535C0.519793 14.3878 0.536835 14.4134 0.545356 14.4476C0.553878 14.4818 0.57092 14.516 0.579441 14.5502C0.587962 14.5845 0.605004 14.6101 0.613526 14.6443C0.630568 14.6785 0.639089 14.7127 0.656131 14.7469C0.673174 14.7812 0.681695 14.8068 0.698737 14.841C0.71578 14.8752 0.724301 14.9094 0.741343 14.9437C0.758386 14.9779 0.766907 15.0035 0.783949 15.0377C0.800992 15.0719 0.809513 15.1061 0.826555 15.1318C0.843598 15.166 0.852119 15.1917 0.869161 15.2259C0.886204 15.2601 0.903247 15.2943 0.920289 15.32C0.937331 15.3542 0.954374 15.3798 0.962895 15.414C0.979937 15.4482 0.996979 15.4739 1.01402 15.5081C1.03106 15.5338 1.04811 15.568 1.06515 15.5936C1.08219 15.6278 1.09923 15.6535 1.11628 15.6877C1.13332 15.7134 1.15036 15.7476 1.1674 15.7732C1.18445 15.8074 1.20149 15.8331 1.21853 15.8673C1.23557 15.893 1.25262 15.9272 1.26966 15.9528C1.2867 15.987 1.30374 16.0127 1.32931 16.0469C1.34635 16.0725 1.36339 16.1068 1.38895 16.1324C1.406 16.1666 1.43156 16.1923 1.4486 16.2265C1.46564 16.2521 1.49121 16.2864 1.50825 16.312C1.52529 16.3462 1.55086 16.3719 1.5679 16.3975C1.58494 16.4232 1.6105 16.4574 1.62755 16.4831C1.65311 16.5087 1.67015 16.5429 1.69572 16.5686C1.71276 16.5942 1.73832 16.6284 1.75537 16.6541C1.78093 16.6798 1.79797 16.714 1.82353 16.7396C1.8491 16.7653 1.86614 16.7909 1.8917 16.8252C1.91727 16.8508 1.93431 16.885 1.95987 16.9107C1.98544 16.9363 2.00248 16.962 2.02804 16.9876C2.05361 17.0133 2.07917 17.0475 2.10473 17.0732C2.1303 17.0988 2.14734 17.1245 2.1729 17.1501C2.19847 17.1758 2.22403 17.2015 2.24959 17.2357C2.27516 17.2613 2.30072 17.287 2.31776 17.3126C2.34333 17.3383 2.36889 17.3639 2.39445 17.3982C2.42002 17.4238 2.44558 17.4495 2.47115 17.4751C2.49671 17.5008 2.51375 17.5179 2.53932 17.5435C2.59044 17.5949 2.64157 17.6376 2.68418 17.6889C2.70122 17.706 2.71826 17.7231 2.7353 17.7317C2.79495 17.7916 2.86312 17.8429 2.92277 17.9027C2.94833 17.9198 2.9739 17.9455 2.99094 17.9626C3.03354 17.9968 3.06763 18.031 3.11023 18.0652C3.14432 18.0909 3.1784 18.1251 3.21249 18.1508C3.23805 18.1679 3.26362 18.1935 3.28918 18.2106C3.63003 18.4757 3.9794 18.7066 4.34581 18.9205C3.1358 15.8331 3.78341 12.1813 6.26308 9.68401C6.30568 9.64125 6.35681 9.59848 6.39942 9.55572C6.40794 9.53862 6.42498 9.53007 6.4335 9.51296C6.45906 9.4873 6.47611 9.46165 6.50167 9.44454L6.85956 9.08535C8.48711 7.45186 9.32218 5.3138 9.35627 3.16718C9.35627 3.09876 9.35627 3.03034 9.35627 2.96192C9.35627 2.91916 9.35627 2.88495 9.35627 2.84219C9.35627 2.82509 9.35627 2.81654 9.35627 2.79943C9.35627 2.77377 9.35627 2.73956 9.34775 2.71391C9.34775 2.6968 9.34775 2.6797 9.33923 2.66259C9.33923 2.63694 9.3307 2.61128 9.3307 2.57707C9.3307 2.55997 9.32218 2.53431 9.32218 2.51721C9.32218 2.49155 9.31366 2.46589 9.31366 2.44024C9.31366 2.42313 9.30514 2.39747 9.30514 2.38037C9.30514 2.35471 9.29662 2.32906 9.29662 2.29485C9.29662 2.26919 9.2881 2.25209 9.2881 2.22643C9.27958 2.20077 9.27958 2.16656 9.27106 2.14091C9.27106 2.11525 9.26253 2.09814 9.26253 2.07249C9.25401 2.04683 9.25401 2.01262 9.24549 1.98697C9.24549 1.96131 9.23697 1.9442 9.23697 1.91855C9.22845 1.89289 9.22845 1.85868 9.21993 1.82447C9.21141 1.79882 9.21141 1.78171 9.20289 1.75605C9.19437 1.72185 9.18584 1.69619 9.18584 1.66198C9.17732 1.64487 9.17732 1.61922 9.1688 1.60211C9.16028 1.5679 9.15176 1.5337 9.14324 1.49949C9.14324 1.48238 9.13472 1.46528 9.13472 1.44817C9.12619 1.40541 9.10915 1.3541 9.10063 1.31134C9.10063 1.30278 9.10063 1.29423 9.09211 1.29423C9.07507 1.24292 9.06655 1.1916 9.0495 1.14029C9.0495 1.12319 9.04098 1.11463 9.04098 1.09753C9.03246 1.06332 9.02394 1.02911 9.01542 0.98635C9.0069 0.969245 9.0069 0.952141 8.99838 0.926484C8.98986 0.892275 8.98134 0.866618 8.97281 0.832409C8.96429 0.815304 8.96429 0.789648 8.95577 0.772543C8.94725 0.746886 8.93873 0.712677 8.93021 0.687021C8.92169 0.669916 8.92169 0.644259 8.91317 0.627155C8.90464 0.601498 8.89612 0.567289 8.8876 0.541632C8.8876 0.53308 8.87908 0.524527 8.87908 0.515975C8.78535 0.190989 8.48711 0.00283914 8.18886 0.00283914C8.0014 -0.0142654 7.82245 0.0456002 7.67759 0.190989Z" fill="white"/>
</mask>
<g mask="url(#mask0_200_13276)">
<path d="M-6.47607 16.3291L1.26117 -3.23853L15.8068 2.55991L8.0696 22.119L-6.47607 16.3291Z" fill="url(#paint0_linear_200_13276)"/>
</g>
<mask id="mask1_200_13276" style="mask-type:luminance" maskUnits="userSpaceOnUse" x="3" y="4" width="14" height="17">
<path d="M10.5325 5.39649C10.4985 5.4307 10.4644 5.47346 10.4303 5.50767C10.4218 5.51622 10.4132 5.52477 10.4047 5.54188C10.3792 5.56753 10.3536 5.59319 10.3365 5.6274C10.328 5.6445 10.311 5.65306 10.3025 5.67016C10.2854 5.69582 10.2684 5.72147 10.2428 5.74713C10.2343 5.76424 10.2173 5.78134 10.2087 5.79845C10.1917 5.8241 10.1746 5.84976 10.1576 5.86686C10.1491 5.88397 10.132 5.90107 10.1235 5.91818C10.1065 5.94383 10.098 5.96094 10.0809 5.98659C10.0724 6.0037 10.0639 6.0208 10.0468 6.04646C10.0298 6.07212 10.0213 6.08922 10.0127 6.11488C10.0042 6.13198 9.9957 6.15764 9.98718 6.17474C9.97866 6.2004 9.96162 6.21751 9.9531 6.24316C9.94457 6.26027 9.93605 6.28592 9.92753 6.30303C9.91901 6.32869 9.91049 6.34579 9.90197 6.37145C9.89345 6.38855 9.88493 6.41421 9.8764 6.43987C9.86788 6.46552 9.85936 6.48263 9.85084 6.50828C9.84232 6.53394 9.8338 6.55104 9.82528 6.5767C9.81676 6.60236 9.80824 6.61946 9.80824 6.64512C9.79971 6.67078 9.79971 6.68788 9.79119 6.71354C9.78267 6.73919 9.78267 6.7563 9.77415 6.78196C9.76563 6.80761 9.76563 6.83327 9.75711 6.85037C9.74859 6.87603 9.74859 6.89314 9.74859 6.91879C9.74859 6.94445 9.74007 6.97011 9.74007 6.99576C9.74007 7.01287 9.73154 7.03852 9.73154 7.05563C9.73154 7.08128 9.72302 7.10694 9.72302 7.1326C9.72302 7.1497 9.72302 7.17536 9.7145 7.19246C9.7145 7.21812 9.70598 7.24378 9.70598 7.27799C9.70598 7.29509 9.70598 7.3122 9.70598 7.3293C9.70598 7.44903 9.70598 7.56876 9.7145 7.69705C9.7145 7.69705 9.7145 7.69705 9.7145 7.7056C9.7145 7.74836 9.72302 7.79112 9.73154 7.83388C9.73154 7.85099 9.74007 7.85954 9.74007 7.87665C9.74859 7.9023 9.74859 7.93651 9.75711 7.96217C9.75711 7.97927 9.76563 7.99638 9.76563 8.02203C9.77415 8.04769 9.77415 8.07335 9.78267 8.09045C9.79119 8.10756 9.79119 8.13321 9.79971 8.15032C9.80824 8.17598 9.80824 8.19308 9.81676 8.21874C9.82528 8.24439 9.8338 8.2615 9.8338 8.28715C9.84232 8.30426 9.85084 8.32992 9.85084 8.34702C9.85936 8.37268 9.86788 8.38978 9.8764 8.41544C9.88493 8.43254 9.89345 8.4582 9.90197 8.47531C9.91049 8.50096 9.91901 8.51807 9.92753 8.54372C9.93605 8.56083 9.94457 8.58648 9.9531 8.60359C9.96162 8.62925 9.97014 8.64635 9.97866 8.67201C9.98718 8.68911 9.9957 8.71477 10.0042 8.73187C10.0127 8.74898 10.0213 8.77463 10.0383 8.79174C10.0468 8.80884 10.0553 8.8345 10.0724 8.8516C10.0809 8.86871 10.098 8.89437 10.1065 8.91147C10.115 8.92857 10.132 8.95423 10.1406 8.97134C10.1491 8.98844 10.1661 9.00555 10.1746 9.0312C10.1917 9.04831 10.2002 9.07396 10.2173 9.09107C10.2258 9.10817 10.2428 9.12528 10.2513 9.14238C10.2684 9.15949 10.2854 9.18514 10.3025 9.20225C10.311 9.21935 10.328 9.23646 10.3365 9.25356C10.3536 9.27922 10.3706 9.29632 10.3962 9.32198C10.4047 9.33053 10.4218 9.34764 10.4303 9.36474C10.4644 9.39895 10.4899 9.43316 10.524 9.46737C10.5581 9.50158 10.5922 9.53579 10.6263 9.57855C10.6348 9.5871 10.6433 9.6042 10.6604 9.61276C10.6859 9.63841 10.703 9.66407 10.7285 9.68973C10.737 9.70683 10.7541 9.72394 10.7626 9.73249C10.7797 9.75814 10.7967 9.77525 10.8137 9.80091C10.8223 9.81801 10.8393 9.83511 10.8478 9.85222C10.8649 9.87788 10.8819 9.89498 10.8989 9.92064C10.9075 9.93774 10.9245 9.95485 10.933 9.97195C10.9501 9.99761 10.9586 10.0147 10.9756 10.0404C10.9842 10.0575 10.9927 10.0746 11.0097 10.1002C11.0182 10.1259 11.0353 10.143 11.0438 10.1687C11.0523 10.1858 11.0608 10.2114 11.0694 10.2285C11.0779 10.2542 11.0949 10.2713 11.1035 10.2969C11.112 10.314 11.1205 10.3397 11.129 10.3568C11.1375 10.3825 11.1461 10.4081 11.1546 10.4252C11.1631 10.4423 11.1716 10.468 11.1801 10.4851C11.1887 10.5107 11.1972 10.5364 11.2057 10.5535C11.2142 10.5706 11.2228 10.5963 11.2228 10.6134C11.2313 10.639 11.2398 10.6647 11.2483 10.6903C11.2568 10.7074 11.2568 10.7331 11.2654 10.7502C11.2739 10.7759 11.2739 10.8015 11.2824 10.8272C11.2909 10.8528 11.2909 10.8699 11.2994 10.8956C11.308 10.9213 11.308 10.9469 11.3165 10.9726C11.3165 10.9982 11.325 11.0153 11.325 11.041C11.325 11.0666 11.3335 11.0923 11.3335 11.118C11.3335 11.1436 11.3421 11.1607 11.3421 11.1864C11.3421 11.212 11.3506 11.2377 11.3506 11.2633C11.3506 11.289 11.3506 11.3061 11.3591 11.3318C11.3591 11.3574 11.3591 11.3831 11.3591 11.4087C11.3591 11.4344 11.3591 11.4515 11.3591 11.4771C11.3591 11.5028 11.3591 11.5285 11.3591 11.5541C11.3591 11.5798 11.3591 11.5969 11.3591 11.6225C11.3591 11.6482 11.3591 11.6739 11.3506 11.6995C11.3506 11.7252 11.3506 11.7423 11.3421 11.7679C11.3421 11.7936 11.3335 11.8192 11.3335 11.8449C11.3335 11.862 11.325 11.8877 11.325 11.9048C11.325 11.9304 11.3165 11.9561 11.3165 11.9817C11.3165 11.9988 11.308 12.0245 11.308 12.0416C11.2994 12.0673 11.2994 12.0929 11.2909 12.1186C11.2909 12.1357 11.2824 12.1613 11.2739 12.1784C11.2654 12.2041 11.2568 12.2297 11.2568 12.2554C11.2483 12.2725 11.2483 12.2896 11.2398 12.3153C11.2313 12.3409 11.2228 12.3751 11.2142 12.4008C11.2057 12.4179 11.2057 12.435 11.1972 12.4521C11.1887 12.4863 11.1716 12.5205 11.1631 12.5547C11.1546 12.5633 11.1546 12.5804 11.1461 12.5889C11.129 12.6317 11.112 12.6745 11.0864 12.7172C11.0779 12.7258 11.0779 12.7343 11.0694 12.7514C11.0523 12.7856 11.0353 12.8199 11.0182 12.8455C11.0097 12.8626 11.0012 12.8797 10.9927 12.8883C10.9756 12.9139 10.9671 12.9396 10.9501 12.9652C10.9416 12.9823 10.933 12.9995 10.916 13.0166C10.8989 13.0422 10.8904 13.0679 10.8734 13.085C10.8649 13.1021 10.8478 13.1192 10.8393 13.1363C10.8223 13.1619 10.8052 13.1791 10.7882 13.2047C10.7711 13.2218 10.7626 13.2389 10.7456 13.256C10.7285 13.2817 10.7115 13.2988 10.6944 13.3244C10.6774 13.3415 10.6689 13.3586 10.6518 13.3758C10.6348 13.3929 10.6177 13.4185 10.6007 13.4356C10.5837 13.4527 10.5666 13.4698 10.5496 13.4869C10.5325 13.504 10.524 13.5126 10.507 13.5297C10.4985 13.5382 10.4985 13.5382 10.4899 13.5468C10.4729 13.5639 10.4558 13.581 10.4388 13.5981C10.4218 13.6152 10.3962 13.6323 10.3792 13.6494C10.3706 13.658 10.3621 13.6665 10.3621 13.6665C10.3451 13.6751 10.3365 13.6922 10.3195 13.7007C10.311 13.7093 10.2939 13.7178 10.2854 13.7349C10.2599 13.7521 10.2343 13.7777 10.2087 13.7948C10.2002 13.8034 10.1917 13.8119 10.1746 13.8205C10.1491 13.8376 10.1235 13.8632 10.0894 13.8803C10.0809 13.8889 10.0639 13.8974 10.0553 13.906C10.0298 13.9231 10.0042 13.9402 9.98718 13.9488C9.07541 14.5132 7.91653 14.5132 6.99624 13.9488C6.97068 13.9317 6.94511 13.9145 6.91955 13.906C6.91103 13.8974 6.89399 13.8889 6.88547 13.8803C6.8599 13.8632 6.82582 13.8461 6.80026 13.8205C6.79173 13.8119 6.78321 13.8034 6.76617 13.7948C6.74061 13.7777 6.71504 13.7521 6.68948 13.7349C6.68096 13.7264 6.66392 13.7178 6.6554 13.7007C6.63835 13.6922 6.62131 13.6751 6.61279 13.6665C6.60427 13.658 6.59575 13.6494 6.59575 13.6494C6.5787 13.6323 6.55314 13.6152 6.5361 13.5981C6.51906 13.581 6.50201 13.5639 6.48497 13.5468C6.47645 13.5382 6.47645 13.5382 6.46793 13.5297C6.45089 13.5126 6.44236 13.504 6.42532 13.4869C6.40828 13.4698 6.39976 13.4527 6.38272 13.4442C6.36567 13.4185 6.34011 13.4014 6.32307 13.3758C6.30603 13.3586 6.2975 13.3415 6.28046 13.333C6.26342 13.3073 6.23786 13.2817 6.22081 13.2646C6.21229 13.2475 6.19525 13.2389 6.18673 13.2218C6.16117 13.1876 6.14412 13.1619 6.11856 13.1277C6.11004 13.1192 6.11004 13.1106 6.10152 13.1021C6.07595 13.0593 6.05039 13.0251 6.02483 12.9823C6.0163 12.9652 6.00778 12.9567 5.99926 12.9396C5.98222 12.9139 5.96518 12.8883 5.95666 12.8626C5.94813 12.8455 5.93961 12.8284 5.93109 12.8113C5.92257 12.7856 5.90553 12.76 5.89701 12.7429C5.88849 12.7258 5.87997 12.7001 5.87144 12.683C5.86292 12.6574 5.8544 12.6403 5.83736 12.6146C5.82884 12.5975 5.82032 12.5718 5.8118 12.5547C5.80328 12.5291 5.79475 12.512 5.78623 12.4863C5.77771 12.4692 5.76919 12.4436 5.76067 12.4179C5.75215 12.3922 5.74363 12.3751 5.73511 12.3495C5.72658 12.3238 5.71806 12.3067 5.71806 12.2811C5.70954 12.2554 5.70954 12.2383 5.70102 12.2126C5.6925 12.187 5.6925 12.1699 5.68398 12.1442C5.67546 12.1186 5.67546 12.1015 5.66694 12.0758C5.65841 12.0502 5.65842 12.033 5.64989 12.0074C5.64989 11.9817 5.64137 11.9646 5.64137 11.939C5.64137 11.9133 5.63285 11.8962 5.63285 11.8706C5.63285 11.8449 5.62433 11.8278 5.62433 11.8021C5.62433 11.7765 5.61581 11.7594 5.61581 11.7337C5.61581 11.7081 5.61581 11.691 5.61581 11.6653C5.61581 11.6396 5.61581 11.6225 5.61581 11.5969C5.61581 11.5712 5.61581 11.5541 5.61581 11.5285C5.61581 11.5028 5.61581 11.4857 5.61581 11.46C5.61581 11.4344 5.61581 11.4087 5.61581 11.3916C5.61581 11.3489 5.62433 11.3147 5.62433 11.2719C5.62433 11.2462 5.63285 11.2206 5.63285 11.1949C5.63285 11.1693 5.64137 11.1522 5.64137 11.1265C5.64137 11.1009 5.64989 11.0837 5.64989 11.0581C5.64989 11.0324 5.65841 11.0153 5.65841 10.9897C5.66694 10.964 5.66694 10.9469 5.67546 10.9213C5.68398 10.8956 5.68398 10.8785 5.6925 10.8528C5.70102 10.8272 5.70102 10.8101 5.70954 10.7844C5.71806 10.7588 5.71806 10.7417 5.72658 10.716C5.73511 10.6903 5.74363 10.6732 5.74363 10.6476C5.75215 10.6219 5.76067 10.6048 5.76919 10.5792C5.77771 10.5535 5.78623 10.5364 5.79475 10.5107C5.80328 10.4851 5.8118 10.468 5.82032 10.4423C5.82884 10.4167 5.83736 10.3996 5.84588 10.3739C5.8544 10.3568 5.86292 10.3311 5.87144 10.314C5.87997 10.2884 5.88849 10.2713 5.90553 10.2456C5.91405 10.2285 5.92257 10.2029 5.93961 10.1858C5.94814 10.1601 5.96518 10.143 5.9737 10.1173C5.98222 10.1002 5.99926 10.0746 6.00778 10.0575C6.02483 10.0318 6.03335 10.0147 6.05039 9.98906C6.05891 9.97195 6.07595 9.95485 6.08447 9.93774C6.10152 9.91209 6.11856 9.89498 6.12708 9.86932C6.1356 9.85222 6.15264 9.83511 6.16117 9.81801C6.17821 9.79235 6.19525 9.7667 6.22081 9.74104C6.22933 9.72394 6.23786 9.71538 6.2549 9.69828C6.28046 9.66407 6.31455 9.62986 6.34011 9.59565L6.34863 9.5871C6.30603 9.62986 6.2549 9.67262 6.21229 9.71538C3.7241 12.2126 3.08502 15.8645 4.29502 18.9518C7.18371 20.5768 10.8308 20.3801 13.5405 18.3788C13.5576 18.3617 13.5746 18.3532 13.6002 18.3361C13.6513 18.3019 13.6939 18.2677 13.7365 18.2249C13.8047 18.1736 13.8643 18.1223 13.9325 18.0709C13.9581 18.0453 13.9921 18.0196 14.0177 17.994C14.0944 17.9341 14.1626 17.8657 14.2393 17.7973C14.2478 17.7887 14.2563 17.7802 14.2648 17.7716C14.3415 17.7032 14.4097 17.6348 14.4864 17.5664C14.5034 17.5493 14.5119 17.5407 14.529 17.5236C14.5971 17.4552 14.6653 17.3868 14.7335 17.3183C14.7505 17.3012 14.759 17.2927 14.7761 17.2756C14.8357 17.2157 14.8869 17.1473 14.9465 17.0874C14.955 17.0703 14.9721 17.0618 14.9806 17.0447C15.0402 16.9677 15.0999 16.8993 15.1595 16.8223C15.1766 16.8052 15.1851 16.7881 15.2021 16.771C15.2533 16.7026 15.3044 16.6342 15.3555 16.5743C15.3641 16.5572 15.3726 16.5486 15.3811 16.5315C15.4407 16.4546 15.4919 16.3776 15.543 16.3006C15.5515 16.2835 15.5686 16.2664 15.5771 16.2493C15.6282 16.1809 15.6708 16.1039 15.7134 16.0355C15.7219 16.027 15.7305 16.0184 15.7305 16.0013C15.7816 15.9243 15.8242 15.8388 15.8753 15.7618C15.8838 15.7447 15.9009 15.7276 15.9094 15.702C15.952 15.625 15.9946 15.548 16.0372 15.4711C16.0372 15.4625 16.0457 15.454 16.0457 15.454C16.0884 15.3684 16.131 15.2829 16.1736 15.2059C16.1821 15.1888 16.1906 15.1632 16.1991 15.1461C16.2417 15.0605 16.2758 14.975 16.3099 14.8895C16.344 14.804 16.3781 14.7185 16.4122 14.6329C16.4207 14.6158 16.4292 14.5902 16.4377 14.5731C16.4718 14.4875 16.5059 14.402 16.5315 14.308V14.2994C16.557 14.2139 16.5911 14.1284 16.6167 14.0428C16.6252 14.0257 16.6252 14.0001 16.6337 13.983C16.6593 13.8974 16.6848 13.8034 16.7104 13.7178C16.7104 13.7093 16.7104 13.7007 16.7189 13.7007C16.7445 13.6152 16.7615 13.5297 16.7786 13.4442C16.7871 13.4271 16.7871 13.4014 16.7956 13.3843C16.8127 13.2902 16.8382 13.2047 16.8553 13.1106C16.8553 13.1021 16.8553 13.0935 16.8638 13.0764C16.8808 12.9909 16.8893 12.9139 16.9064 12.8284C16.9064 12.8113 16.9149 12.7942 16.9149 12.7771C16.932 12.683 16.9405 12.5975 16.949 12.5034C16.949 12.4949 16.949 12.4778 16.949 12.4692C16.9575 12.3837 16.966 12.2982 16.9746 12.2212C16.9746 12.2041 16.9746 12.187 16.9746 12.1699C16.9831 12.0758 16.9916 11.9817 16.9916 11.8877C16.9916 11.8706 16.9916 11.862 16.9916 11.8449C16.9916 11.7594 17.0001 11.6739 17.0001 11.5883C17.0001 11.5712 17.0001 11.5627 17.0001 11.5456C17.0001 11.4515 17.0001 11.3574 17.0001 11.2633C17.0001 11.2462 17.0001 11.2377 17.0001 11.2206C17.0001 11.1351 16.9916 11.0495 16.9916 10.9555C16.9916 10.9469 16.9916 10.9384 16.9916 10.9298C16.9831 10.8357 16.9746 10.7417 16.966 10.6476C16.966 10.6305 16.966 10.6219 16.9575 10.6048C16.949 10.5107 16.9405 10.4252 16.9234 10.3311V10.3226C16.9064 10.2285 16.8979 10.1344 16.8808 10.0318C16.8808 10.0233 16.8723 10.0062 16.8723 9.99761C16.8382 9.80946 16.7956 9.61276 16.753 9.42461C16.753 9.41605 16.7445 9.4075 16.7445 9.3904C16.6934 9.20225 16.6422 9.00555 16.5826 8.8174C16.5826 8.80884 16.5741 8.80029 16.5741 8.79174C16.5144 8.60359 16.4377 8.40689 16.361 8.21874C16.361 8.21018 16.3525 8.21018 16.3525 8.20163C16.3269 8.15032 16.3099 8.09901 16.2843 8.04769C16.2758 8.03914 16.2758 8.02203 16.2673 8.00493C16.2503 7.96217 16.2247 7.91085 16.2077 7.86809C16.1991 7.85099 16.1906 7.83388 16.1821 7.81678C16.165 7.77402 16.1395 7.73126 16.1224 7.69705C16.1139 7.67139 16.0969 7.65429 16.0884 7.62863C16.0713 7.59442 16.0543 7.55166 16.0287 7.51745C16.0117 7.49179 16.0031 7.46614 15.9861 7.44048C15.9691 7.40627 15.952 7.37206 15.935 7.34641C15.9179 7.32075 15.9009 7.28654 15.8838 7.26088C15.8668 7.23523 15.8498 7.20102 15.8327 7.17536C15.8157 7.14115 15.7986 7.11549 15.7731 7.08129C15.756 7.05563 15.739 7.02997 15.7219 7.00431C15.7049 6.97011 15.6793 6.9359 15.6623 6.90169C15.6453 6.87603 15.6282 6.85037 15.6197 6.83327C15.5941 6.79906 15.5686 6.76485 15.5515 6.72209C15.5345 6.69643 15.526 6.67933 15.5089 6.65367C15.4833 6.61946 15.4578 6.5767 15.4322 6.54249C15.4152 6.52539 15.4067 6.49973 15.3896 6.48263C15.3641 6.44842 15.33 6.40566 15.3044 6.37145C15.2874 6.35434 15.2788 6.33724 15.2618 6.32013C15.2362 6.27737 15.2021 6.24316 15.1681 6.2004C15.151 6.1833 15.1425 6.16619 15.1255 6.14909C15.0914 6.10633 15.0573 6.07212 15.0317 6.02936C15.0232 6.01225 15.0062 6.0037 14.9976 5.98659C14.9636 5.94383 14.9295 5.90107 14.8954 5.86686C14.8869 5.85831 14.8698 5.84121 14.8613 5.83265C14.8187 5.78989 14.7846 5.74713 14.742 5.70437C14.7335 5.69582 14.725 5.68727 14.7164 5.67871C14.6653 5.6274 14.6142 5.57609 14.5716 5.52477C14.5545 5.50767 14.5375 5.48201 14.5119 5.46491C14.4949 5.4478 14.4693 5.42214 14.4523 5.40504C13.9069 4.8919 13.2082 4.62678 12.5095 4.62678C11.8107 4.55837 11.0864 4.84059 10.5325 5.39649Z" fill="white"/>
</mask>
<g mask="url(#mask1_200_13276)">
<path d="M23.5269 17.1386L6.06697 26.2211L-3.37451 7.94494L14.0854 -1.14612L23.5269 17.1386Z" fill="url(#paint1_linear_200_13276)"/>
</g>
</g>
<defs>
<linearGradient id="paint0_linear_200_13276" x1="1.04338" y1="18.5207" x2="10.2164" y2="-4.50495" gradientUnits="userSpaceOnUse">
<stop stop-color="#005CB9"/>
<stop offset="0.4128" stop-color="#083E92"/>
<stop offset="0.7848" stop-color="#0D2876"/>
<stop offset="1" stop-color="#0F206C"/>
</linearGradient>
<linearGradient id="paint1_linear_200_13276" x1="17.773" y1="8.51224" x2="2.96196" y2="16.1641" gradientUnits="userSpaceOnUse">
<stop stop-color="#005CB9"/>
<stop offset="0.4128" stop-color="#083E92"/>
<stop offset="0.7848" stop-color="#0D2876"/>
<stop offset="1" stop-color="#0F206C"/>
</linearGradient>
</defs>
</svg>
